<svg xmlns="http://www.w3.org/2000/svg" xmlns:xlink="http://www.w3.org/1999/xlink" width="64" height="64" preserveAspectRatio="xMidYMid meet" viewBox="0 0 64 64" style="-ms-transform: rotate(360deg); -webkit-transform: rotate(360deg); transform: rotate(360deg);"><path d="M32 2c-8.25 0-15 6.751-15 15v30c0 8.25 6.75 15 15 15s15-6.75 15-15V17c0-8.249-6.75-15-15-15m0 56.25a7.5 7.5 0 0 1-7.5-7.5a7.5 7.5 0 1 1 7.5 7.5m0-18.75a7.5 7.5 0 0 1-7.5-7.5a7.5 7.5 0 1 1 7.5 7.5m0-18.75a7.5 7.5 0 0 1-7.5-7.5a7.5 7.5 0 1 1 7.5 7.5"/><rect x="0" y="0" width="64" height="64" fill="rgba(0, 0, 0, 0)" /></svg>