<?xml version="1.0" encoding="utf-8"?>
<!-- Generator: Adobe Illustrator 16.0.0, SVG Export Plug-In . SVG Version: 6.00 Build 0)  -->
<!DOCTYPE svg PUBLIC "-//W3C//DTD SVG 1.1//EN" "http://www.w3.org/Graphics/SVG/1.1/DTD/svg11.dtd">
<svg version="1.1" id="Layer_1" xmlns="http://www.w3.org/2000/svg" xmlns:xlink="http://www.w3.org/1999/xlink" x="0px" y="0px"
	 width="738px" height="671px" viewBox="0 0 738 671" enable-background="new 0 0 738 671" xml:space="preserve">
<path fill-rule="evenodd" clip-rule="evenodd" d="M370.098,492.495c-8.094-14.018-3.291-31.941,10.727-40.033
	c14.011-8.09,31.933-3.286,40.027,10.731c8.087,14.01,3.287,31.933-10.725,40.021C396.109,511.309,378.186,506.505,370.098,492.495
	 M240.543,486.378c3.093-3.83,6.925-7.166,11.444-9.775c17.068-9.854,38.263-6.086,51,7.934c12.295-2.271,24.97-5.438,37.857-9.504
	c0.936-17.883,10.618-34.945,27.279-44.563c19.769-11.414,43.703-9.08,60.738,4.033c2.341-1.43,4.677-2.891,7.008-4.377
	c4.136-2.64,12.555-8.256,17.927-11.925c8.12,10.72,14.486,21.42,18.877,31.805c-1.572,1.3-3.163,2.59-4.771,3.868
	c-4.062,3.237-14.229,10.444-18.693,13.686c4.254,22.233-5.675,45.692-26.385,57.649c-21.792,12.582-48.642,8.461-65.731-8.38
	c-16.041,5.833-31.973,10.285-47.501,13.341c-3.465,7.171-9.042,13.416-16.46,17.698c-19.297,11.142-43.866,4.875-55.524-13.923
	c-36.642-4.192-66.645-18.86-83.983-44.183c-26.479-38.656-17.323-93.173,18.344-145.043
	c-20.404,39.971-23.473,78.271-4.412,106.104c14.574,21.279,40.044,33.476,71.829,36.939
	C239.759,487.294,240.145,486.832,240.543,486.378z M253.47,523.258c-6.089-10.544-2.478-24.024,8.068-30.112
	c10.539-6.084,24.021-2.473,30.109,8.071c6.084,10.541,2.473,24.021-8.068,30.106C273.035,537.411,259.555,533.799,253.47,523.258z
	 M194.582,412.009c-19.665-28.713-10.48-71.18,19.667-112.727c-17.61,31.714-21.394,61.408-7.236,82.084
	c25.262,36.878,99.37,33.073,175.926-5.47c3.992-2.009,12.827-6.786,17.568-9.395c8.778,6.588,16.958,13.388,24.467,20.313
	c-3.777,2.424-10.604,6.482-13.283,8.205C323.96,451.38,226.756,458.99,194.582,412.009z"/>
<path fill-rule="evenodd" clip-rule="evenodd" d="M270.905,295.234c16.187,0,29.307,13.121,29.307,29.307
	c0,16.179-13.12,29.298-29.307,29.298c-16.177,0-29.299-13.119-29.299-29.298C241.606,308.355,254.728,295.234,270.905,295.234
	 M340.244,184.317c2.235,5.071,3.479,10.679,3.479,16.577c0,19.771-13.953,36.284-32.548,40.238
	c-4.165,11.748-7.741,24.268-10.655,37.411c15.093,9.739,25.088,26.7,25.088,45.998c0,22.882-14.06,42.48-34.009,50.641
	c0.068,2.71,0.164,5.431,0.283,8.163c0.225,5.039,0.907,15.563,1.402,22.017c-13.246,1.804-25.647,2.145-36.842,0.975
	c-0.403-2.361-0.786-4.736-1.141-7.124c-0.774-5.142-1.935-17.573-2.508-23.051c-2.982-1.047-5.844-2.347-8.564-3.868
	c-4.743-2.567-9.029-5.882-12.708-9.808c-9.479-9.835-15.309-23.211-15.309-37.945c0-25.105,16.912-46.257,39.959-52.691
	c2.977-16.881,7.109-32.976,12.253-48.01c-4.415-6.555-6.99-14.45-6.99-22.946c0-22.221,17.615-40.325,39.639-41.117
	c21.953-29.659,49.672-48.327,80.287-50.682c46.717-3.602,89.352,31.584,116.438,88.409c-24.413-37.657-56.048-59.465-89.684-56.875
	C382.415,142.608,359.132,158.551,340.244,184.317z M302.576,178.849c12.176,0,22.044,9.869,22.044,22.044
	c0,12.17-9.869,22.039-22.044,22.039c-12.171,0-22.039-9.869-22.039-22.039C280.537,188.718,290.405,178.849,302.576,178.849z
	 M428.216,183.442c34.696-2.673,66.884,26.516,87.79,73.396c-18.659-31.107-42.483-49.231-67.467-47.306
	c-44.57,3.437-78.331,69.519-83.229,155.088c-0.254,4.444-0.534,14.414-0.646,19.843c-10.084,4.381-20.06,8.134-29.819,11.258
	c-0.214-4.452-0.319-12.544-0.472-15.76C329.431,275.8,371.442,187.816,428.216,183.442z"/>
<path fill-rule="evenodd" clip-rule="evenodd" d="M489.692,306.334c-8.093,14.018-26.017,18.82-40.032,10.727
	c-14.012-8.089-18.813-26.01-10.72-40.03c8.088-14.01,26.01-18.813,40.021-10.723C492.979,274.399,497.781,292.325,489.692,306.334
	 M545.658,420.882c-3.655-0.907-7.247-2.337-10.674-4.315c-17.01-9.821-24.352-29.959-18.688-47.949
	c-8.143-9.55-17.256-18.977-27.259-28.137c-15.926,8.049-35.469,8.164-52.076-1.425c-19.715-11.382-29.66-33.192-26.897-54.445
	c-2.438-1.328-4.901-2.638-7.384-3.929c-4.019-2.09-12.052-6.066-17.875-8.882c5.127-12.446,11.109-23.398,17.807-32.513
	c1.539,0.582,3.08,1.173,4.617,1.78c4.827,1.898,16.131,7.087,21.181,9.337c17.13-14.899,42.487-18.077,63.25-6.09
	c21.85,12.616,31.7,38.024,25.563,61.294c13.007,10.925,24.772,22.443,35.145,34.306c8.008-0.631,16.282,1.068,23.764,5.388
	c19.354,11.175,26.195,35.698,15.612,55.221c14.672,33.809,16.959,67.11,3.707,94.772c-20.239,42.26-72.028,61.588-134.783,56.633
	c44.816-2.314,79.521-18.807,94.094-49.23c11.143-23.26,8.967-51.417-3.924-80.675C549.107,421.761,547.378,421.382,545.658,420.882
	z M574.648,391.954c-6.088,10.546-19.568,14.157-30.112,8.07c-10.539-6.087-14.153-19.567-8.065-30.111
	c6.087-10.541,19.566-14.153,30.107-8.066C577.123,367.935,580.734,381.415,574.648,391.954z M507.633,498.699
	c-15.033,31.387-56.404,44.666-107.457,39.332c36.269-0.608,63.876-12.18,74.702-34.776c19.309-40.316-21.04-102.594-92.697-149.621
	c-3.292-2.161-10.322-6.505-15.115-9.422c1.264-10.968,3.015-21.522,5.213-31.567c4.032,2.144,9.617,5.255,12.087,6.528
	C477.04,366.971,532.232,447.347,507.633,498.699z"/>
</svg>
