<?xml version="1.0" encoding="utf-8"?>
<!-- Svg Vector Icons : http://www.onlinewebfonts.com/icon -->
<!DOCTYPE svg PUBLIC "-//W3C//DTD SVG 1.1//EN" "http://www.w3.org/Graphics/SVG/1.1/DTD/svg11.dtd">
<svg version="1.1" xmlns="http://www.w3.org/2000/svg" xmlns:xlink="http://www.w3.org/1999/xlink" x="0px" y="0px" viewBox="0 0 1000 1000" enable-background="new 0 0 1000 1000" xml:space="preserve">
<metadata> Svg Vector Icons : http://www.onlinewebfonts.com/icon </metadata>
<g><path d="M500,10C229.8,10,10,229.8,10,500c0,270.2,219.8,490,490,490c100,0,195.7-29.7,277.5-86.1v0.2l7.8-5.7l4.5-0.7l0.4-3c5-3.7,10-7.4,14.9-11.3c1.2-1,2.4-2.1,3.4-3.2c30.3-25.2,73.5-66.6,107.7-121.5c48.3-77.5,73.8-167,73.8-258.8C990,229.8,770.2,10,500,10z M865,726.8l-0.5,0.9c-12.7,20.4-28.1,41.1-43.5,58.3c-21.7,24.2-53.2,50.1-53.4,50.3c-76.7,61.1-169.2,93.4-267.5,93.4C263.1,929.7,70.3,736.9,70.3,500C70.3,263.1,263.1,70.3,500,70.3c236.9,0,429.7,192.8,429.7,429.7C929.7,580.5,907.3,658.9,865,726.8z"/><path d="M360.9,262.8c-3.6,0-7.2,0.6-10.7,1.9l-144,52.4c-16.1,5.9-24.5,23.8-18.6,39.9c4.5,12.3,16.2,20.5,29.3,20.5c0,0,0,0,0,0c3.6,0,7.2-0.6,10.7-1.9l144-52.4c7.8-2.8,14.1-8.6,17.6-16.1c3.5-7.5,3.9-16,1-23.8C385.8,271,374,262.8,360.9,262.8z"/><path d="M294.8,383.4c-36,0-65.3,29.3-65.3,65.3c0,36,29.3,65.3,65.3,65.3c36,0,65.3-29.3,65.3-65.3C360.1,412.7,330.8,383.4,294.8,383.4z"/><path d="M796,317.1l-144-52.4c-3.4-1.2-7-1.9-10.6-1.9c-13,0-24.8,8.2-29.3,20.5c-5.9,16.2,2.5,34.1,18.6,39.9l144,52.4c3.4,1.3,7,1.9,10.7,1.9c13,0,24.8-8.2,29.3-20.5c2.8-7.8,2.5-16.3-1-23.8C810.1,325.7,803.8,320,796,317.1z"/><path d="M707.5,383.4c-36,0-65.3,29.3-65.3,65.3c0,36,29.3,65.3,65.3,65.3c36,0,65.3-29.3,65.3-65.3C772.8,412.7,743.5,383.4,707.5,383.4z"/><path d="M650,631.1c-7.4,0-14.6,2.7-19.8,7.1L525,713c-13,11.2-14.5,30.9-3.3,43.9c5.9,6.9,14.5,10.8,23.6,10.8c0,0,0,0,0,0c7.4,0,14.7-2.7,19.8-7.2l105.2-74.7c13-11.2,14.5-30.9,3.3-43.9C667.7,635,659.1,631.1,650,631.1z"/></g>
</svg>