<svg xmlns="http://www.w3.org/2000/svg" overflow="hidden" viewBox="0 0 754 609">
  <defs/>
  <defs>
    <clipPath id="a">
      <path fill-rule="evenodd" d="M254 112h754v609H254z" clip-rule="evenodd"/>
    </clipPath>
  </defs>
  <g clip-path="url(#a)" transform="translate(-254 -112)">
    <path fill="#FFF" d="M254 113h753v586H254z"/>
    <path fill="none" stroke="#005494" stroke-linejoin="round" stroke-miterlimit="10" stroke-width="27" d="M377.5 408a255.2 255.2 0 01255-255.5c140.8 0 255 114.4 255 255.5a255.2 255.2 0 01-255 255.5 255.2 255.2 0 01-255-255.5z"/>
    <path fill="#FFF" d="M481 687h306v33H481z"/>
    <path fill="#676767" fill-rule="evenodd" d="M493 501.7l279.8-186.3 8.8 14.7a168.1 168.1 0 01-41.7 208l-13.6 10-.5.4-14.5 8.7a168.1 168.1 0 01-208-41.7L493 501.7zM772.1 314.1L492.4 500.5l-8.8-14.8a168.1 168.1 0 0141.7-208l13.6-10 .4-.4 14.6-8.6a168.1 168.1 0 01208 41.6l10.2 13.8z"/>
    <path fill="#005494" fill-rule="evenodd" d="M809 629.9a284.1 284.1 0 01-363.4-5.3l43-50.3a218 218 0 00279 4z"/>
    <path fill="#FFF" fill-rule="evenodd" d="M534 408c0-53.6 44.1-97 98.5-97a97.8 97.8 0 0198.5 97c0 53.6-44.1 97-98.5 97a97.8 97.8 0 01-98.5-97z"/>
    <path fill="none" stroke="#E78747" stroke-linejoin="round" stroke-miterlimit="10" stroke-width="27" d="M425.5 408.5c0-116 93.8-210 209.5-210s209.5 94 209.5 210-93.8 210-209.5 210-209.5-94-209.5-210z"/>
    <path fill="#FFF" fill-rule="evenodd" d="M476.6 237.2l32.7-25.5 23.1 29.6-32.7 25.5zM681.2 179.7l38.8 14.5-15 40.2-38.9-14.5z"/>
    <path fill="#FFF" d="M402 396h41v30h-41z"/>
    <path fill="#E78747" fill-rule="evenodd" d="M632.2 121c19.8 0 40.5 2.3 59.2 6.2 24.3 6 14 3.6 21.6 5.6l-31.7 99-12.3-3.1a182.5 182.5 0 00-138.7 27.5l-2.4 1.8-61.9-83.4 6-4.4c45.7-31 100.9-49.2 160.2-49.2zM726.6 137l17.5 6.4a287 287 0 01152.1 152.3l.8 2.2-96.9 37.1-7.4-15.5a182.6 182.6 0 00-89.1-81l-8.6-3 31.6-98.5zM455 183l62 82.8-.4.3A181.2 181.2 0 00451 387.7l-.6 12.3H346l1.1-22a284.9 284.9 0 01103-191.3l5-3.7zM346 414h104.6l.5 11a181.3 181.3 0 0052.5 110l1.4 1.3-70.5 77.7-4.8-4.3a278.2 278.2 0 01-81.9-170.9L346 414z"/>
    <text fill="#FFF" font-family="Arial,Arial_MSFontService,sans-serif" font-size="16" font-weight="700" transform="translate(546.6 529)">
      2.0 Data Management <tspan x="9.1" y="19">Program &amp; Funding</tspan><tspan x="16.9" y="-251">1.0 Data Strategy </tspan><tspan x="19.2" y="-232">&amp; Business Case</tspan><tspan x="-144.3" y="-253">4.0</tspan><tspan x="-158.5" y="-230">Data &amp; </tspan><tspan x="-177.7" y="-211">Technology </tspan><tspan x="-180.3" y="-192">Architecture</tspan><tspan x="241.2" y="-313">6.0</tspan><tspan x="235" y="-290">Data </tspan><tspan x="206.1" y="-271">Governance</tspan><tspan x="-134.1" y="-65">3.0</tspan><tspan x="-158.5" y="-42">Business </tspan><tspan x="-148.2" y="-23">&amp; Data </tspan><tspan x="-170" y="-4">Architecture</tspan><tspan x="31.3" y="-366">5.0</tspan><tspan x="-4.3" y="-343">Data Quality </tspan><tspan x="-6.5" y="-324">Management</tspan><tspan x="22.6" y="129">7.0 Data Control</tspan><tspan x="35" y="148">Environment</tspan>
    </text>
    <path fill="#FFF" fill-rule="evenodd" d="M811.5 507.2l5.5-9.7 2.2 1.3-4 7 3 1.7 3.6-6.6 2.2 1.3-3.7 6.5 3.6 2 4.1-7.3 2.2 1.3-5.6 10z"/>
    <text x="811.5" y="512.5" fill-opacity="0" font-family="Arial,Arial_MSFontService,sans-serif" font-size="17.1">
      E
    </text>
    <path fill="#FFF" fill-rule="evenodd" d="M821 498.7l1.4-3.2 3.6-.5-2-3 1.5-3.2 3.2 5.5 6.8-1.3-1.4 3.2-4 .7 2.1 3.4-1.3 3-3.5-5.8z"/>
    <text x="821" y="501.5" fill-opacity="0" font-family="Arial,Arial_MSFontService,sans-serif" font-size="14.5">
      x
    </text>
    <path fill="#FFF" fill-rule="evenodd" d="M829.4 484a2 2 0 000 1.7c.4.6.9 1 1.6 1.3l1.6-4c-.8-.3-1.5-.4-2-.1a2 2 0 00-1.2 1.1zm-2.1-.6a4.8 4.8 0 012.9-3c1.3-.5 3-.3 5 .5l-2.5 6.8a3 3 0 002 0c.7-.2 1-.7 1.3-1.3.2-.4.2-.8 0-1.2 0-.4-.3-.7-.8-1l1.5-2.6c.8.8 1.4 1.6 1.6 2.5.2 1 .1 2-.3 3.1-.7 1.8-1.7 2.9-3.2 3.3-1.2.3-2.5.2-3.9-.4a6 6 0 01-3.5-2.8 4.7 4.7 0 01-.1-3.9z"/>
    <text x="826.9" y="489.3" fill-opacity="0" font-family="Arial,Arial_MSFontService,sans-serif" font-size="10.5">
      e
    </text>
    <path fill="#FFF" fill-rule="evenodd" d="M831.2 472.4c.4-1.3 1-2.2 1.8-2.8.7-.6 1.7-.8 3-.8l-.4 2.9c-.6-.1-1 0-1.4.2a2 2 0 00-.9 1.1c-.2.7-.1 1.3.2 1.9.4.5 1 1 2.2 1.4 1.2.4 2.2.4 2.8.2.6-.3 1-.7 1.3-1.4.2-.6.2-1 0-1.5-.2-.4-.7-.8-1.3-1.2l1.3-2.5a5 5 0 012.3 2.5c.3 1 .3 2.2-.1 3.5a5 5 0 01-2.6 3.2c-1.3.6-2.7.6-4.4 0a5.9 5.9 0 01-3.6-2.6 5 5 0 01-.2-4.1z"/>
    <text x="830.9" y="478.2" fill-opacity="0" font-family="Arial,Arial_MSFontService,sans-serif" font-size="10.7">
      c
    </text>
    <path fill="#FFF" fill-rule="evenodd" d="M833.4 466.2l.7-2.8 4.8 1.3 2.8.6c.4 0 .7-.1 1-.4.2-.2.4-.5.5-1a2.3 2.3 0 00-.8-2.3c-.3-.3-1.3-.6-2.8-1l-4.4-1.2.7-2.8 10.6 2.9-.7 2.5-1.6-.4c.4.6.8 1.2 1 1.9a4.4 4.4 0 01-1.1 3.9c-.5.4-1 .7-1.6.8a6 6 0 01-2.5-.2z"/>
    <text x="833.4" y="466.8" fill-opacity="0" font-family="Arial,Arial_MSFontService,sans-serif" font-size="11.6">
      u
    </text>
    <path fill="#FFF" fill-rule="evenodd" d="M833.4 450.4l3.7.9.5-2 2.2.6-.4 1.9 4.3 1 1.5.2.4-.1.2-.5v-1.2l2.3.3-.1 2.3c-.1.5-.3 1-.6 1.3a2 2 0 01-.8.8l-1.2.1-2-.3-4.7-1-.3 1.2-2.2-.5.3-1.3-2.1-.5z"/>
    <text x="833.4" y="455.2" fill-opacity="0" font-family="Arial,Arial_MSFontService,sans-serif" font-size="6.6">
      t
    </text>
    <path fill="#FFF" fill-rule="evenodd" d="M838 447.5l.5-2.8 10.7 2-.6 3zm-4.1-.7l.5-2.9 2.6.5-.5 2.9z"/>
    <text x="833.9" y="448.9" fill-opacity="0" font-family="Arial,Arial_MSFontService,sans-serif" font-size="5.7">
      i
    </text>
    <path fill="#FFF" fill-rule="evenodd" d="M841.8 437.5c-.1.8 0 1.4.6 2 .5.6 1.2 1 2.3 1.2 1 .1 2 0 2.6-.5.6-.4 1-1 1.1-1.7.1-.8 0-1.4-.6-2-.5-.6-1.3-1-2.4-1.1-1-.2-1.9 0-2.5.4-.6.4-1 1-1.1 1.7zm-2.3-.3a5.4 5.4 0 016.4-4.8c1.6.3 2.9 1 3.8 2.2 1 1.2 1.3 2.6 1 4.2-.1 1-.5 2-1 2.7-.6.9-1.4 1.5-2.3 1.8a6.6 6.6 0 01-6-.8 4.8 4.8 0 01-1.7-2.3 6 6 0 01-.2-3z"/>
    <text x="839.4" y="442.2" fill-opacity="0" font-family="Arial,Arial_MSFontService,sans-serif" font-size="11.3">
      o
    </text>
    <path fill="#FFF" fill-rule="evenodd" d="M840.8 423.8c0-.6.2-1.2.4-1.7a3 3 0 011-1.2c.4-.2.8-.4 1.2-.4a9 9 0 012 0l6.7.3-.1 2.9-5.6-.3h-2.3a1.6 1.6 0 00-1.2 1.5c0 .5.1 1 .4 1.4.2.4.6.7 1 .9.4.2 1.3.3 2.5.3l5 .3-.3 3-10.8-.7.1-2.7 1.6.1a4.4 4.4 0 01-1.6-3.7z"/>
    <text x="840.7" y="429.4" fill-opacity="0" font-family="Arial,Arial_MSFontService,sans-serif" font-size="10.3">
      n
    </text>
    <path fill="#FFF" fill-rule="evenodd" d="M751.4 496l6-8.4 2 1.5-4.2 6 3 2 3.6-5.1 2 1.4-3.6 5.1 5.2 3.7-1.8 2.5z"/>
    <text x="751.4" y="502.6" fill-opacity="0" font-family="Arial,Arial_MSFontService,sans-serif" font-size="17.1">
      F
    </text>
    <path fill="#FFF" fill-rule="evenodd" d="M765.8 485.3c-.4.6-.4 1.3-.2 2 .3.8.9 1.4 1.8 2 1 .4 1.8.6 2.6.4.7-.1 1.3-.5 1.6-1.2.4-.7.4-1.3.2-2-.3-.8-.9-1.4-1.8-2-1-.5-1.8-.6-2.6-.5-.7.2-1.3.6-1.6 1.3zm-2-1.1a5.4 5.4 0 017.6-2.2 5.4 5.4 0 012.3 7.7c-.5.8-1.1 1.5-2 2.1-.8.6-1.7.9-2.7.9a6.6 6.6 0 01-5.2-3c-.6-.8-.9-1.7-.9-2.7 0-1 .3-2 .8-2.8z"/>
    <text x="762.9" y="491.2" fill-opacity="0" font-family="Arial,Arial_MSFontService,sans-serif" font-size="11.5">
      o
    </text>
    <path fill="#FFF" fill-rule="evenodd" d="M767.3 478l1.1-2.7 4.6 2c1.4.7 2.3 1 2.7 1 .3 0 .7 0 1-.2.2-.2.5-.4.7-.8a2.3 2.3 0 00-.5-2.5c-.3-.3-1.1-.8-2.6-1.4l-4.2-1.9 1.2-2.6 10 4.4-1.1 2.4-1.5-.6c.3.6.6 1.2.6 2a4.4 4.4 0 01-1.6 3.6c-.5.4-1.1.6-1.7.6a6 6 0 01-2.4-.6z"/>
    <text x="767.3" y="479.8" fill-opacity="0" font-family="Arial,Arial_MSFontService,sans-serif" font-size="12.5">
      u
    </text>
    <path fill="#FFF" fill-rule="evenodd" d="M774 460.7c.2-.6.5-1.1 1-1.5a3 3 0 011.1-.9h1.4c.4 0 1 .1 1.9.4l6.3 2.3-1 2.7-5.2-1.9a8.6 8.6 0 00-2.2-.6c-.3 0-.7.1-1 .3-.2.2-.4.5-.5.9-.2.5-.2 1-.1 1.4.1.5.4.8.7 1.1.4.3 1.2.7 2.3 1l4.7 1.7-1 2.7-10.2-3.6.8-2.5 1.6.5c-.9-1.3-1-2.6-.6-4z"/>
    <text x="772.2" y="468.8" fill-opacity="0" font-family="Arial,Arial_MSFontService,sans-serif" font-size="12.1">
      n
    </text>
    <path fill="#FFF" fill-rule="evenodd" d="M779.3 451c-.2.7 0 1.3.4 2 .4.5 1 1 2.1 1.3a5 5 0 002.6.2c.8-.3 1.4-.8 1.6-1.6.2-.6 0-1.3-.4-1.9-.4-.6-1.1-1-2.2-1.3-1.2-.3-2.2-.4-2.8 0-.7.2-1 .7-1.3 1.4zm-5.2-3.9l.8-2.8 14.5 4-.8 2.7-1.5-.5c.5.6.8 1.3 1 2a4 4 0 01-.1 1.8 4.1 4.1 0 01-2.4 2.7c-1.2.6-2.6.6-4.4.1-1.8-.4-3-1.2-3.7-2.3a4.2 4.2 0 011.8-6.2z"/>
    <text x="774.1" y="455.8" fill-opacity="0" font-family="Arial,Arial_MSFontService,sans-serif" font-size="13.1">
      d
    </text>
    <path fill="#FFF" fill-rule="evenodd" d="M786.2 438.5v1.8l.2 1.6c.2.5.5.7.9.8.4 0 .8 0 1.1-.2.4-.3.6-.6.7-1 0-.6 0-1-.2-1.6-.2-.4-.5-.7-.8-.9l-1.4-.4zm-6.2.5c.3-1.3.6-2.2 1-2.7.5-.6 1-1 1.5-1a6 6 0 012.6 0l3.3.8 2 .3c.5 0 1 0 1.6-.2l-.6 2.8a10.8 10.8 0 01-1.2.1c.3.6.6 1.2.7 1.8v1.8a3.7 3.7 0 01-1.5 2.4 3 3 0 01-2.4.5c-.6-.1-1.1-.4-1.5-.8-.4-.4-.7-.9-.9-1.4-.1-.6-.2-1.4-.1-2.4 0-1.4 0-2.3-.2-2.9h-.2c-.6-.2-1-.1-1.3.1-.3.2-.5.7-.6 1.5-.2.5-.1.9 0 1.2.1.3.4.6.9.9l-1 2.4a4 4 0 01-2-2c-.3-.7-.4-1.8 0-3.2z"/>
    <text x="779.8" y="444.4" fill-opacity="0" font-family="Arial,Arial_MSFontService,sans-serif" font-size="10.5">
      a
    </text>
    <path fill="#FFF" fill-rule="evenodd" d="M778.3 428.5l3.8.6.3-2 2.3.4-.4 2 4.4.7 1.5.2.4-.2.2-.5v-1.2l2.2.1c.2.7.2 1.5 0 2.3 0 .5-.2 1-.4 1.4a2 2 0 01-.8.8l-1.2.2-2-.2-4.7-.8-.2 1.4-2.3-.4.2-1.3-2.1-.3z"/>
    <text x="778.3" y="432.8" fill-opacity="0" font-family="Arial,Arial_MSFontService,sans-serif" font-size="6.5">
      t
    </text>
    <path fill="#FFF" fill-rule="evenodd" d="M782.6 425.4l.3-2.8 10.9 1.2-.4 2.9zm-4.1-.5l.3-2.8 2.7.3-.4 2.8z"/>
    <text x="778.5" y="426.1" fill-opacity="0" font-family="Arial,Arial_MSFontService,sans-serif" font-size="4.6">
      i
    </text>
    <path fill="#FFF" fill-rule="evenodd" d="M785.6 415.2c0 .8.2 1.4.8 2 .5.5 1.4.8 2.4.8 1.1.1 2-.1 2.6-.6.6-.5.9-1 1-1.8 0-.8-.3-1.4-.8-2-.6-.5-1.4-.8-2.5-.9-1 0-1.9.2-2.5.7-.6.4-1 1-1 1.8zm-2.3-.1a5.4 5.4 0 016-5.3c1.6 0 3 .7 4 1.8s1.4 2.5 1.4 4c-.1 1-.4 2-.9 2.9-.5.9-1.2 1.5-2 2a6.6 6.6 0 01-6-.4 4.9 4.9 0 01-2-2 6 6 0 01-.5-3z"/>
    <text x="783.3" y="419.6" fill-opacity="0" font-family="Arial,Arial_MSFontService,sans-serif" font-size="11.2">
      o
    </text>
    <path fill="#FFF" fill-rule="evenodd" d="M783.3 401.8c0-.7 0-1.3.2-1.8s.5-1 .8-1.2l1.2-.7a9 9 0 012-.2l6.7-.4.2 3-5.6.2c-1.2 0-2 .2-2.3.3-.3.1-.6.4-.7.6-.2.3-.3.7-.3 1 0 .6.2 1 .5 1.4.3.4.7.6 1.1.7.5.2 1.3.2 2.5.1l5-.2.1 2.8-10.9.6v-2.7h1.5c-1.3-1-2-2-2-3.5z"/>
    <text x="783.3" y="406.7" fill-opacity="0" font-family="Arial,Arial_MSFontService,sans-serif" font-size="10.5">
      n
    </text>
    <path fill="#FFF" fill-rule="evenodd" d="M849.4 528.3c1-1.6 2.2-2.5 3.7-3 1-.2 2-.1 3.2.2l-1 3c-.7-.3-1.4-.3-2.1 0-.7.2-1.3.6-1.7 1.3-.6 1-.7 2-.4 3 .3 1 1.2 2 2.7 2.9 1.7 1 3 1.4 4 1.3 1-.2 1.9-.7 2.5-1.7a3 3 0 00.4-2.1c-.1-.8-.6-1.6-1.4-2.4l2.4-2a6.6 6.6 0 011.9 3.9c.1 1.3-.3 2.6-1.1 4a6.5 6.5 0 01-4.4 3c-1.8.4-3.7 0-5.7-1.2a8.2 8.2 0 01-4-4.8 6.6 6.6 0 011-5.4z"/>
    <text x="848.2" y="538.1" fill-opacity="0" font-family="Arial,Arial_MSFontService,sans-serif" font-size="14.7">
      C
    </text>
    <path fill="#FFF" fill-rule="evenodd" d="M861.4 520c-.3.8-.4 1.4 0 2.2.2.7.8 1.3 1.8 1.8s1.8.6 2.5.4c.8-.2 1.3-.6 1.7-1.3.3-.7.3-1.4 0-2-.2-.8-.9-1.4-1.8-1.9-1-.5-1.8-.6-2.6-.4-.7.2-1.3.6-1.6 1.3zm-2.1-1a5.4 5.4 0 017.6-2.5c1.5.8 2.4 1.9 3 3.3.4 1.5.3 2.9-.4 4.3-.5 1-1.1 1.7-2 2.3-.7.6-1.6.9-2.6 1a6.6 6.6 0 01-5.3-2.7c-.6-.9-1-1.8-1-2.8 0-1 .2-2 .7-2.9z"/>
    <text x="858.6" y="525.9" fill-opacity="0" font-family="Arial,Arial_MSFontService,sans-serif" font-size="11.5">
      o
    </text>
    <path fill="#FFF" fill-rule="evenodd" d="M859 510.5l1.2-2.6 13.8 6-1.2 2.7z"/>
    <text x="859.1" y="515.5" fill-opacity="0" font-family="Arial,Arial_MSFontService,sans-serif" font-size="8.7">
      l
    </text>
    <path fill="#FFF" fill-rule="evenodd" d="M861.3 505.3l1.1-2.7 14 5.7-1.2 2.7z"/>
    <text x="861.3" y="509.9" fill-opacity="0" font-family="Arial,Arial_MSFontService,sans-serif" font-size="8.4">
      l
    </text>
    <path fill="#FFF" fill-rule="evenodd" d="M874.8 497.9l-.2 1.8c-.1.8-.2 1.3-.1 1.6.1.4.4.7.8.9h1c.5-.3.7-.6.9-1 .2-.5.2-1 0-1.6 0-.4-.3-.7-.6-1l-1.3-.5zm-6.2-.4c.5-1.3 1-2.1 1.4-2.6.5-.5 1-.8 1.6-.8a6 6 0 012.5.5l3.2 1.2 2 .6h1.6l-1 2.7a10.1 10.1 0 01-1.3 0c.3.6.5 1.2.5 1.8 0 .6 0 1.2-.3 1.8-.4 1-1 1.8-1.8 2.2a3 3 0 01-2.5 0 3 3 0 01-1.4-.9c-.3-.4-.5-1-.6-1.5 0-.6 0-1.4.2-2.4l.3-2.9-.3-.1c-.5-.2-1-.2-1.2 0-.3.2-.6.6-.9 1.3a2 2 0 00-.1 1.2c0 .4.3.7.7 1L870 503a4 4 0 01-1.7-2.2c-.2-.8 0-2 .4-3.2z"/>
    <text x="868.1" y="503.8" fill-opacity="0" font-family="Arial,Arial_MSFontService,sans-serif" font-size="11.1">
      a
    </text>
    <path fill="#FFF" fill-rule="evenodd" d="M874.7 486.4c-.2.7-.1 1.3.3 1.9.3.6 1 1 2.1 1.4 1 .3 2 .4 2.5.2 1-.2 1.5-.7 1.7-1.5a2 2 0 00-.3-1.8c-.3-.6-1-1-2.2-1.4-1.2-.4-2.1-.5-2.8-.2-.6.3-1 .7-1.3 1.4zm-7.4 3.2l.9-2.8 5.1 1.7a4.2 4.2 0 011.9-6.2c1.2-.5 2.6-.5 4.4 0 1.7.6 3 1.4 3.7 2.6.6 1.1.8 2.3.4 3.5a4 4 0 01-1 1.6c-.5.5-1 .8-1.8 1l1.6.6-.8 2.5z"/>
    <text x="867.3" y="492.6" fill-opacity="0" font-family="Arial,Arial_MSFontService,sans-serif" font-size="12.2">
      b
    </text>
    <path fill="#FFF" fill-rule="evenodd" d="M878.3 474.5c-.2.7 0 1.4.4 2 .4.7 1.1 1.2 2.2 1.4 1 .3 1.9.3 2.6 0 .7-.4 1-1 1.3-1.7.2-.7 0-1.4-.4-2-.4-.7-1.1-1.1-2.2-1.4-1-.3-1.9-.2-2.6.1-.6.3-1 .9-1.3 1.6zm-2.3-.6a5.4 5.4 0 017-4c1.6.4 2.7 1.3 3.5 2.6.8 1.3 1 2.8.6 4.3-.3 1-.8 1.8-1.4 2.6-.7.8-1.5 1.3-2.5 1.5a6.6 6.6 0 01-5.7-1.5 4.9 4.9 0 01-1.5-2.5 6 6 0 010-3z"/>
    <text x="875.8" y="479.6" fill-opacity="0" font-family="Arial,Arial_MSFontService,sans-serif" font-size="11.3">
      o
    </text>
    <path fill="#FFF" fill-rule="evenodd" d="M879 461.4c.2-.6.5-1.2 1-1.7l2.3 1.4c-.5.4-.7.8-.8 1.2l.1 1.1 1 1 3.5 1 3.3.7-.6 2.8-10.6-2.4.6-2.6 1.5.3c-.7-.6-1-1-1.2-1.5v-1.3z"/>
    <text x="878.2" y="467.7" fill-opacity="0" font-family="Arial,Arial_MSFontService,sans-serif" font-size="9.2">
      r
    </text>
    <path fill="#FFF" fill-rule="evenodd" d="M886.6 453.6l.1 1.8.2 1.6c.2.5.5.7 1 .8.3 0 .7 0 1-.3.4-.2.6-.6.7-1 0-.5 0-1-.3-1.6-.2-.4-.4-.7-.8-.8-.2-.2-.7-.3-1.4-.4zm-6.1.7c.2-1.3.5-2.2 1-2.8.3-.5.8-.9 1.3-1a6 6 0 012.6 0l3.3.6 2.1.3 1.5-.3-.5 2.8a10.3 10.3 0 01-1.2.2c.4.6.6 1.2.8 1.8v1.8c-.2 1-.6 1.9-1.4 2.4a3 3 0 01-2.4.6 3 3 0 01-1.5-.8c-.5-.3-.8-.8-1-1.4l-.2-2.4c0-1.3 0-2.3-.2-2.8h-.2c-.6-.2-1-.1-1.3.1-.3.2-.5.7-.6 1.5v1.2c.2.3.5.6 1 .9l-1 2.5a4 4 0 01-2-2c-.3-.7-.4-1.8-.1-3.2z"/>
    <text x="880.3" y="459.4" fill-opacity="0" font-family="Arial,Arial_MSFontService,sans-serif" font-size="10.4">
      a
    </text>
    <path fill="#FFF" fill-rule="evenodd" d="M878.5 443.6l3.8.5.3-2 2.3.4-.3 2 4.4.5 1.5.2.4-.2.2-.5-.1-1.2h2.2c.2.8.3 1.6.2 2.4l-.5 1.4a2 2 0 01-.8.8l-1.2.2-2-.2-4.7-.6-.2 1.3-2.2-.3.1-1.3-2.1-.4z"/>
    <text x="878.5" y="447.8" fill-opacity="0" font-family="Arial,Arial_MSFontService,sans-serif" font-size="6.4">
      t
    </text>
    <path fill="#FFF" fill-rule="evenodd" d="M882.8 440.2l.3-2.9 10.9 1.2-.3 2.9zm-4-.5l.2-2.8 2.7.3-.3 2.8z"/>
    <text x="878.7" y="440.8" fill-opacity="0" font-family="Arial,Arial_MSFontService,sans-serif" font-size="4.5">
      i
    </text>
    <path fill="#FFF" fill-rule="evenodd" d="M885.9 429.7c0 .7.2 1.4.7 2 .6.5 1.4.8 2.5.9 1 0 1.9-.2 2.5-.7a2.4 2.4 0 00.2-3.8c-.5-.5-1.4-.8-2.5-.9-1 0-1.9.2-2.5.7-.6.4-.9 1-1 1.8zm-2.4-.1a5.4 5.4 0 016-5.3c1.6 0 3 .7 4 1.8s1.5 2.5 1.4 4.1c0 1-.4 2-.9 2.8-.5.9-1.2 1.5-2 2a6.6 6.6 0 01-6-.4 4.9 4.9 0 01-2-2.1 6 6 0 01-.5-3z"/>
    <text x="883.5" y="434.1" fill-opacity="0" font-family="Arial,Arial_MSFontService,sans-serif" font-size="11.2">
      o
    </text>
    <path fill="#FFF" fill-rule="evenodd" d="M883.7 415.8c0-.6 0-1.2.3-1.7.2-.5.5-1 .8-1.2l1.2-.6a9 9 0 012-.2l6.7-.2.1 2.8-5.5.2c-1.2 0-2 .1-2.3.3-.4 0-.6.3-.8.6-.2.3-.3.6-.3 1 0 .5.2 1 .5 1.3.3.4.6.7 1.1.8.5.1 1.3.2 2.5.1l5-.1v2.9l-10.9.3v-2.7h1.6c-1.3-1-2-2.1-2-3.6z"/>
    <text x="883.7" y="420.8" fill-opacity="0" font-family="Arial,Arial_MSFontService,sans-serif" font-size="10.2">
      n
    </text>
    <text fill="#E78747" font-family="Arial,Arial_MSFontService,sans-serif" font-size="43" font-weight="700" transform="translate(567.3 423)">
      DCAM
    </text>
  </g>
</svg>
